<svg xmlns="http://www.w3.org/2000/svg" width="44.271" height="44.271" style="enable-background:new 0 0 44.271 44.271" xml:space="preserve">
  <path fill="#dd2222dd" d="m42.355 10.833-9.189-9.066C32.074.676 30.492.083 28.949.083H14.547c-1.541 0-3.02.593-4.11 1.684l-8.909 9.076C.437 11.934 0 13.404 0 14.945v14.402c0 1.542.437 3.021 1.528 4.111l8.998 9.056c1.09 1.09 2.481 1.674 4.022 1.674h14.403c1.541 0 3.021-.584 4.111-1.674l9.295-9.071c1.09-1.09 1.914-2.555 1.914-4.097V14.944c-.002-1.541-.824-3.02-1.916-4.111zM22.134 32.766c-1.528 0-2.766-1.264-2.766-2.823 0-1.561 1.238-2.824 2.766-2.824s2.767 1.264 2.767 2.824c-.001 1.559-1.239 2.823-2.767 2.823zM24.9 22.375c0 1.559-1.207 2.822-2.767 2.822s-2.767-1.264-2.767-2.822v-11.65c0-1.559 1.207-2.824 2.767-2.824S24.9 9.166 24.9 10.724v11.651z"/>
</svg>
